PathFileType	4	(X/Y/Z)	D:\TRACE\spot_10-12-23\spot_body_motion_3_5-platform.trc
DataRate	CameraRate	NumFrames	NumMarkers	Units	OrigDataRate	OrigDataStartFrame	OrigNumFrames
100.00	100.00	      30	5	mm	100.00	4376	      7000
Frame#	Time	Left_Front			Right_Front			Left_Aft			Right_Aft			Post			
		X1	Y1	Z1	X2	Y2	Z2	X3	Y3	Z3	X4	Y4	Z4	X5	Y5	Z5	

4376	43.750	-781.95917	-79.26414	-656.49603	790.47876	-73.89298	-649.65826	-699.35699	61.87756	472.78088	717.86755	77.13049	558.15869	1.22798	612.30292	-1067.79724	
4377	43.760	-781.75690	-79.50344	-656.52063	790.57385	-74.09682	-649.68384	-699.30035	61.97237	472.76788	718.04486	77.34280	558.09235	1.25118	611.91559	-1068.16272	
4378	43.770	-781.45026	-79.89009	-656.53998	790.80359	-74.25412	-649.67474	-699.20172	62.07212	472.68323	718.23627	77.59887	557.98456	1.28306	611.56799	-1068.37439	
4379	43.780	-781.27753	-80.12321	-656.58917	791.04755	-74.46483	-649.68774	-699.02399	62.14874	472.59378	718.43207	77.80620	557.93292	1.51441	611.22528	-1068.60706	
4380	43.790	-781.22443	-80.10251	-656.61035	791.18768	-74.62730	-649.68878	-698.95416	62.23910	472.51929	718.69580	77.92024	557.89630	1.65551	610.96405	-1068.92078	
4381	43.800	-781.06067	-80.25493	-656.61566	791.32935	-74.77442	-649.72052	-698.83948	62.31810	472.46161	718.93231	78.03986	557.84985	1.75524	610.71045	-1069.12732	
4382	43.810	-780.94641	-80.39597	-656.60797	791.41364	-74.86862	-649.73645	-698.66864	62.40582	472.40308	719.09406	78.12785	557.85687	1.96483	610.43298	-1069.40906	
4383	43.820	-780.90051	-80.46687	-656.57953	791.49554	-74.94730	-649.73694	-698.45709	62.53157	472.36572	719.17877	78.14116	557.82556	2.18324	610.20721	-1069.67480	
4384	43.830	-780.83795	-80.48553	-656.58008	791.61945	-75.02716	-649.73767	-698.20752	62.59547	472.38278	719.25488	78.19410	557.79132	2.37474	610.09064	-1069.74280	
4385	43.840	-780.72638	-80.57714	-656.66992	791.72070	-75.08692	-649.76056	-698.10608	62.72876	472.24728	719.37494	78.25233	557.72498	2.59107	609.87903	-1069.79565	
4386	43.850	-780.56665	-80.63570	-656.65131	791.88110	-75.20638	-649.82892	-698.02753	62.77265	472.19485	719.53510	78.30183	557.71283	2.83931	609.70386	-1069.93799	
4387	43.860	-780.50677	-80.59014	-656.66754	792.03131	-75.31689	-649.90906	-697.86023	62.86205	472.18350	719.64276	78.32998	557.66840	3.08403	609.54608	-1070.07190	
4388	43.870	-780.35870	-80.61922	-656.66980	792.14655	-75.39425	-649.95667	-697.76782	62.96212	472.15710	719.76324	78.44934	557.63440	3.25806	609.39758	-1070.19861	
4389	43.880	-780.17285	-80.68189	-656.69696	792.17871	-75.43070	-649.95416	-697.56653	62.95335	472.19376	719.91504	78.52008	557.57928	3.40917	609.29840	-1070.30945	
4390	43.890	-780.01556	-80.73764	-656.69250	792.21521	-75.43427	-649.98315	-697.43250	62.96306	472.14664	720.00098	78.52802	557.56244	3.49913	609.23157	-1070.42737	
4391	43.900	-780.09149	-80.74280	-656.55383	792.29163	-75.43862	-649.98688	-697.29761	62.94474	472.12888	720.07147	78.54531	557.54254	3.61174	609.19482	-1070.48145	
4392	43.910	-779.80859	-80.79287	-656.64746	792.38318	-75.44700	-650.01270	-697.22638	62.91830	472.10495	720.17963	78.53432	557.49548	3.64019	609.19446	-1070.49475	
4393	43.920	-779.67120	-80.83994	-656.64600	792.42120	-75.44357	-650.01666	-697.17377	62.88510	472.15204	720.30182	78.51652	557.51886	3.77640	609.25330	-1070.52563	
4394	43.930	-779.49109	-80.76013	-656.62286	792.58893	-75.45366	-650.02814	-697.08984	62.81097	472.13858	720.54340	78.47440	557.53223	3.84813	609.33643	-1070.53113	
4395	43.940	-779.15967	-80.84810	-656.64221	792.84863	-75.47180	-650.03235	-696.94977	62.74705	472.18594	720.75812	78.41966	557.52728	3.99271	609.42267	-1070.52551	
4396	43.950	-778.91888	-80.85504	-656.68530	793.04089	-75.40625	-650.00385	-696.86859	62.75385	472.17276	720.93451	78.37137	557.53644	4.15315	609.59283	-1070.48633	
4397	43.960	-778.64417	-80.87428	-656.68323	793.28595	-75.30179	-649.97369	-696.52667	62.65493	472.29651	721.12921	78.29442	557.58917	4.31944	609.73352	-1070.42993	
4398	43.970	-778.48822	-80.84069	-656.64307	793.54309	-75.15375	-649.90283	-696.36371	62.63351	472.43420	721.32458	78.24060	557.58783	4.45116	609.94769	-1070.33679	
4399	43.980	-778.43286	-80.71401	-656.55560	793.75128	-74.95557	-649.81165	-696.12830	62.45574	472.44250	721.50470	78.14973	557.69592	4.57114	610.17627	-1070.24280	
4400	43.990	-778.27039	-80.57780	-656.53485	793.93176	-74.67551	-649.83209	-695.97052	62.39394	472.49924	721.63391	78.07906	557.73328	4.58850	610.38745	-1070.15015	
4401	44.000	-778.07141	-80.44947	-656.50323	794.16309	-74.33574	-649.76990	-695.81659	62.31105	472.58221	721.80402	77.99487	557.81439	4.65643	610.62805	-1070.09192	
4402	44.010	-777.96387	-80.18191	-656.45020	794.30420	-74.18788	-649.80750	-695.68671	62.24739	472.63824	721.96277	77.90660	557.85919	4.76038	610.95685	-1069.95410	
4403	44.020	-777.93463	-79.88618	-656.47809	794.40198	-74.07336	-649.82043	-695.59491	62.13337	472.65686	722.05292	77.83659	557.89551	4.93048	611.20319	-1069.73987	
4404	44.030	-777.87524	-79.59490	-656.47552	794.51392	-73.95872	-649.77911	-695.49469	62.00526	472.71078	722.19171	77.60665	558.03253	5.11619	611.55182	-1069.39893	
4405	44.040	-777.77570	-79.31750	-656.39008	794.61163	-73.84953	-649.77246	-695.32288	61.81603	472.83185	722.26959	77.36984	558.17096	5.12596	611.97272	-1069.00549	
